<?xml version="1.0" encoding="iso-8859-1"?>
<!-- Uploaded to: SVG Repo, www.svgrepo.com, Generator: SVG Repo Mixer Tools -->
<svg version="1.1" id="Layer_1" xmlns="http://www.w3.org/2000/svg" xmlns:xlink="http://www.w3.org/1999/xlink" 
	 viewBox="0 0 508 508" xml:space="preserve">
<circle style="fill:#324A5E;" cx="254" cy="254" r="254"/>
<path style="fill:#FFFFFF;" d="M366.4,97.3H141.6c-10,0-18.1,8.1-18.1,18.1v277.1c0,10,8.1,18.1,18.1,18.1h224.8
	c10,0,18.1-8.1,18.1-18.1v-277C384.5,105.4,376.4,97.3,366.4,97.3z"/>
<polygon style="fill:#CED5E0;" points="327.5,360.5 363.9,324.1 327.5,324.1 "/>
<polygon style="fill:#E6E9EE;" points="144.1,116.1 144.1,360.5 327.5,360.5 327.5,324.1 363.9,324.1 363.9,116.1 "/>
<g>
	<rect x="164.6" y="152.4" style="fill:#CED5E0;" width="178.9" height="12.3"/>
	<rect x="164.6" y="183.6" style="fill:#CED5E0;" width="178.9" height="12.3"/>
	<rect x="164.6" y="214.9" style="fill:#CED5E0;" width="178.9" height="12.3"/>
	<rect x="164.6" y="246.1" style="fill:#CED5E0;" width="178.9" height="12.3"/>
	<rect x="164.6" y="277.3" style="fill:#CED5E0;" width="95.3" height="12.3"/>
</g>
<path style="fill:#FF7058;" d="M304.1,86.5h-20.7c-3.5,0-6.6-2.4-7.5-5.8c-2.6-9.7-11.4-16.8-21.9-16.8s-19.3,7.1-21.9,16.8
	c-0.9,3.4-4,5.8-7.5,5.8h-20.7c-4.3,0-7.8,3.5-7.8,7.8v22.5c0,4.3,3.5,7.8,7.8,7.8h100.2c4.3,0,7.8-3.5,7.8-7.8V94.3
	C311.9,90,308.4,86.5,304.1,86.5z"/>
<circle style="fill:#FFFFFF;" cx="254" cy="86.5" r="12.6"/>
</svg>