<?xml version="1.0" encoding="UTF-8"?>
<svg version="1.1" viewBox="0 0 800 800" width="200" height="200" xmlns="http://www.w3.org/2000/svg">
<path transform="translate(0)" d="m0 0h800v800h-800z" fill="#FCFCFC"/>
<path transform="translate(412,306)" d="m0 0h9l14 2 15 5 14 8 12 11 7 8 8 14 11 21 8 10 10 9 14 8 10 4 18 4 7 1v-67l1-1h66l1 5v62l-1 1-66 1-1 64h-9l-20-3-19-5-19-8-15-9-13-10-13-12-13-16-9-15-9-17-5-4-4-1h-9l-7 4-4 5-1 3v34l-4 17-8 16-7 9-7 8-12 9-14 7-12 4-6 1h-24l-16-4-12-5-13-9-13-13-8-13-8-17-9-13-5-5v-2l-4-2-10-8-15-7-15-4-15-2-1-1v-21l1-43h11l20 3 16 4 15 6 19 10 12 9 12 11 5 5 8 9 7 10 9 16 6 11 6 5 3 1h8l8-3 5-7 1-9-1-8v-16l3-15 6-15 6-10 11-12 9-8 14-8 15-5z" fill="#0F1B2D"/>
</svg>
